<svg viewBox="0 0 2225.9 1151.6">
  <g id="Layer_2" data-name="Layer 2">
    <g id="Layer_1-2" data-name="Layer 1">
      <g id="Group_9" data-name="Group 9">
        <polygon points="2044 496 1956.7 508.3 2138.6 607.3 2225.9 595 2044 496" style="fill: #676fb8"/>
        <polygon points="1774.1 704.1 1773.9 853.6 1955.8 952.6 1956.1 803 1774.1 704.1" style="fill: #676fb8"/>
        <polygon points="1787.8 240 1787.3 532.1 1969.2 631.1 1969.7 339 1787.8 240" style="fill: #676fb8"/>
        <polygon points="1787.3 532.1 1608.2 557.3 1790.2 656.2 1969.2 631.1 1787.3 532.1" style="fill: #676fb8"/>
        <polygon points="1957.6 0 1754.1 28.6 1936 127.6 2139.6 99 1957.6 0" style="fill: #676fb8"/>
        <polygon points="1754.1 28.6 1416.4 595.7 1598.3 694.7 1936 127.6 1754.1 28.6" style="fill: #676fb8"/>
        <polygon points="1416.4 595.7 1416.1 754.4 1598 853.4 1598.3 694.7 1416.4 595.7" style="fill: #676fb8"/>
        <path d="M2138.6,607.3l1-508.3L1936,127.5,1598.3,694.6l-.3,158.7L1956,803l-.3,149.5,182.2-25.6.3-149.5,87.3-12.3.3-170.2Zm-169.4,23.8h0l-179,25.1,179.6-317.3Z" style="fill: #d9e3f5"/>
      </g>
      <g id="Group_23" data-name="Group 23">
        <path d="M1300.5,781.7c.2-.7.5-1.4.7-2.1s.5-1.6.8-2.5l.6-2.1c.3-.8.5-1.7.8-2.5l.6-2.1c.2-.9.5-1.7.7-2.6.2-.7.4-1.4.6-2.2s.5-1.7.7-2.6a17.42,17.42,0,0,0,.5-2.2c.2-.9.4-1.8.6-2.6s.3-1.5.5-2.2l.6-2.7c.2-.8.3-1.5.5-2.3l.6-2.7c.2-.8.3-1.6.5-2.4s.3-1.8.5-2.7a20,20,0,0,0,.4-2.4c.2-.9.3-1.8.5-2.7s.3-1.7.4-2.5.3-1.8.4-2.7.3-1.7.4-2.6.3-1.8.4-2.6.3-1.8.4-2.7a23.36,23.36,0,0,1,.4-2.6c.1-.9.2-1.9.4-2.9.1-.8.2-1.7.3-2.5l.3-3c.1-.8.2-1.6.3-2.5s.2-2.1.3-3.1a19.42,19.42,0,0,0,.2-2.4l.3-3.3c.1-.8.1-1.5.2-2.3.1-1.2.2-2.3.3-3.5.1-.7.1-1.4.2-2.1.1-1.2.2-2.5.3-3.7.1-.7.1-1.3.2-2l.3-3.9c0-.6.1-1.2.1-1.8l.3-4.2c0-.5.1-1.1.1-1.6.1-1.5.2-3,.2-4.5a5.7,5.7,0,0,1,.1-1.3c.1-1.6.2-3.2.2-4.8v-1.1c.1-1.7.1-3.5.2-5.3v-.7c.1-1.9.1-3.8.2-5.8v-.2c.4-14.1.6-28.6.7-43.3.2-99.2-7.2-187.8-59.8-216.4l-181.9-99h0c51.7,28.1,59.7,114.4,59.8,211.7v4.6c0,24.9-.5,49-2,71.9v.4c-.1,1.7-.2,3.3-.3,5a2.2,2.2,0,0,1-.1.8c-.1,1.5-.2,3.1-.4,4.6,0,.4-.1.7-.1,1.1-.1,1.4-.2,2.9-.4,4.3,0,.5-.1.9-.1,1.4-.1,1.4-.3,2.7-.4,4-.1.5-.1,1.1-.2,1.6-.1,1.3-.3,2.5-.4,3.8-.1.6-.1,1.2-.2,1.8-.1,1.2-.3,2.4-.4,3.6-.1.6-.1,1.3-.2,1.9-.1,1.1-.3,2.3-.4,3.4-.1.7-.2,1.4-.3,2-.1,1.1-.3,2.1-.4,3.2l-.3,2.1c-.1,1-.3,2.1-.5,3.1-.1.7-.2,1.5-.3,2.2-.2,1-.3,2-.5,3a18.46,18.46,0,0,1-.4,2.3c-.2,1-.3,1.9-.5,2.8s-.3,1.5-.4,2.3a23.25,23.25,0,0,0-.5,2.8c-.1.8-.3,1.5-.4,2.3l-.6,2.7c-.2.8-.3,1.5-.5,2.3s-.4,1.7-.6,2.6-.3,1.5-.5,2.3-.4,1.7-.6,2.6-.4,1.5-.6,2.3a23.35,23.35,0,0,1-.7,2.5c-.2.7-.4,1.5-.6,2.2s-.5,1.7-.7,2.5-.4,1.5-.6,2.2-.5,1.6-.7,2.5a17.23,17.23,0,0,1-.7,2.1c-.3.8-.5,1.6-.8,2.4a17.23,17.23,0,0,1-.7,2.1,22.5,22.5,0,0,0-.8,2.4c-.2.7-.5,1.3-.7,2s-.4,1.2-.6,1.7c-.4,1.1-.8,2.2-1.3,3.4-.3.8-.6,1.6-.9,2.3-.6,1.4-1.2,2.9-1.8,4.3-.1.3-.3.6-.4.9-.7,1.6-1.4,3.1-2.2,4.7-.2.3-.3.7-.5,1-.6,1.3-1.3,2.6-2,3.9a11.94,11.94,0,0,0-.8,1.6,5.74,5.74,0,0,1-.4.7c-.6,1-1.1,2-1.7,3.1-.2.3-.3.6-.5.9-.5.9-1.1,1.8-1.6,2.6a14.8,14.8,0,0,0-.8,1.3c-.5.8-1,1.5-1.5,2.3-.2.3-.5.7-.7,1a117.56,117.56,0,0,1-21.5,24c-.1.1-.2.1-.3.2-.9.8-1.9,1.5-2.8,2.3a2.18,2.18,0,0,0-.5.4,28.32,28.32,0,0,1-2.8,2c-.2.1-.3.2-.5.3-.8.5-1.5,1-2.3,1.6a14,14,0,0,1-1.6,1c-.7.4-1.4.9-2.1,1.3s-1.1.7-1.7,1a25.29,25.29,0,0,0-2.2,1.3c-.5.3-1.1.6-1.6.9l-2.4,1.2c-.5.3-1.1.5-1.6.8-.7.3-1.3.6-2,.9a149.68,149.68,0,0,1-19.4,7,139.54,139.54,0,0,1-15.4,3.2l-2.1.3h0a.6.6,0,0,0-.4.1,110,110,0,0,1-36.2-.2,94.38,94.38,0,0,1-24-8.1l181.9,99h0c.9.5,1.9,1,2.8,1.5l-1.8-1h0l1.8,1h0a83,83,0,0,0,14.4,5.3h0c2.3.5,4.5,1,6.8,1.4a94.76,94.76,0,0,0,36,.1.6.6,0,0,0,.4-.1h0l2.2-.3a139.27,139.27,0,0,0,14.3-2.9,119.76,119.76,0,0,0,20.9-7.4h.1c.2-.1.5-.2.7-.3l3-1.5,1.2-.6c1-.5,1.9-1,2.9-1.6.3-.2.7-.4,1-.6l3-1.8c.3-.2.5-.3.8-.5,1-.6,2-1.3,3-2a2.19,2.19,0,0,0,.5-.3h0a.1.1,0,0,0,.1-.1c.8-.5,1.5-1.1,2.2-1.6l.9-.6c.7-.5,1.4-1,2-1.5.3-.2.6-.5.9-.7.7-.5,1.3-1.1,2-1.6l.3-.3c1.1-1,2.3-2,3.4-3,.5-.5,1-.9,1.5-1.4l1.3-1.3,1.3-1.3a15.38,15.38,0,0,0,1.2-1.3,19.2,19.2,0,0,0,1.4-1.5c.4-.4.7-.8,1.1-1.2h0c.8-.9,1.6-1.8,2.3-2.7.3-.3.5-.7.8-1,.5-.7,1.1-1.4,1.6-2a7.63,7.63,0,0,0,.8-1.1l1.5-2.1c.3-.4.5-.7.8-1.1.1-.2.3-.4.4-.6h0c.2-.2.3-.5.5-.7.6-.8,1.1-1.6,1.6-2.4a6.07,6.07,0,0,1,.7-1l1.5-2.4c.3-.5.6-.9.9-1.4.4-.7.9-1.4,1.3-2.1.3-.5.5-.9.8-1.4.5-.8.9-1.7,1.4-2.5v-.1h0a158.38,158.38,0,0,0,7.5-16.1,12.2,12.2,0,0,1,.7-1.7c.5-1.3,1.1-2.7,1.6-4.1a4.88,4.88,0,0,0,.3-.7h0c.1-.2.2-.5.3-.7.2-.7.5-1.4.7-2A6.32,6.32,0,0,0,1300.5,781.7Z" style="fill: #676fb8"/>
        <path d="M1199.8,202.3C978.2,233.4,900.1,423.8,899.6,669.9c-.5,248.4,76.9,416.9,298.6,385.8s299.7-221.6,300.2-470C1498.8,339.6,1421.4,171.2,1199.8,202.3Zm119.6,408.6c-.2,133.4-13.2,245.6-120.8,260.7h0c-107.6,15.1-120.2-93.5-119.9-226.9.2-128.8,13.2-243.3,120.8-258.4S1319.6,482.1,1319.4,610.9Z" style="fill: #d9e3f5"/>
        <path d="M1318.3,207.2h.1q4.65,1.2,9,2.7h.1c1.4.5,2.8.9,4.2,1.4.2.1.5.2.7.3,1.2.4,2.3.8,3.5,1.3.6.2,1.1.4,1.7.6.9.3,1.8.7,2.7,1s1.9.8,2.9,1.2l1.5.6c1.5.6,3,1.3,4.5,2l1.2.6c1,.5,2,.9,3,1.4,2.7,1.3,5.3,2.7,7.9,4.1l-.6-.3.6.3-181.9-99c-2.4-1.3-4.9-2.6-7.4-3.8h0c-.1-.1-.3-.1-.4-.2-2.9-1.4-5.9-2.8-8.9-4-.3-.1-.7-.3-1-.4-1.1-.5-2.2-.9-3.4-1.4l-2.4-.9c-.6-.2-1.2-.5-1.9-.7-1.1-.4-2.3-.8-3.4-1.2a6.89,6.89,0,0,1-.8-.3c-1.4-.5-2.7-.9-4.1-1.4h-.1q-4.5-1.5-9-2.7c-.1,0-.2,0-.2-.1a28.06,28.06,0,0,0-3.1-.8h0c-.2,0-.3-.1-.5-.1a259.44,259.44,0,0,0-53.2-7.5,289.87,289.87,0,0,0-61.7,3.5h0a355.64,355.64,0,0,0-53.3,11.3,329.43,329.43,0,0,0-45.7,17c-.4.2-.7.3-1.1.5h0c-.3.2-.7.3-1,.5-.9.4-1.7.8-2.6,1.3-1.3.6-2.7,1.3-4,2-.8.4-1.7.8-2.5,1.2s-1.6.8-2.4,1.3-1.7.9-2.5,1.3l-2.1,1.2c-1.5.8-3,1.6-4.5,2.5-.2.1-.4.3-.6.4-1.4.8-2.8,1.6-4.2,2.5a10.54,10.54,0,0,0-1.1.7c-1.4.9-2.8,1.7-4.2,2.6a2.19,2.19,0,0,0-.5.3c-1.6,1-3.2,2-4.8,3.1a5.55,5.55,0,0,0-.8.6l-3.6,2.4-.9.6h0A281.75,281.75,0,0,0,847,179.2h0a6,6,0,0,0-.8.8c-1.6,1.5-3.2,2.9-4.8,4.4l-1.2,1.2c-1.6,1.5-3.1,3-4.7,4.6a18.48,18.48,0,0,1-1.4,1.4c-1.4,1.5-2.9,2.9-4.3,4.4-.6.6-1.1,1.2-1.7,1.8-1.4,1.5-2.7,2.9-4,4.4a9,9,0,0,0-.9,1h0a323.84,323.84,0,0,0-21.7,27.5h0c-.6.9-1.3,1.8-1.9,2.7-.2.3-.5.7-.7,1-.5.7-.9,1.4-1.4,2s-.9,1.4-1.4,2.1a21.41,21.41,0,0,1-1.3,1.9c-.4.7-.9,1.3-1.3,2s-1,1.5-1.4,2.2l-.9,1.5c-.6.9-1.2,1.9-1.7,2.8h0c-2.9,4.8-5.7,9.7-8.4,14.6-.3.5-.5,1-.8,1.5s-.4.7-.6,1.1h0c-.1.1-.1.2-.2.3-4.5,8.5-8.8,17.2-12.8,26.2,0,.1-.1.2-.1.3-.7,1.7-1.5,3.3-2.2,5-.5,1.1-.9,2.2-1.4,3.3,0,.1-.1.2-.1.3-1.1,2.7-2.2,5.5-3.3,8.2,0,.1-.1.2-.1.3-.8,2-1.5,3.9-2.3,5.9-.4,1.2-.9,2.4-1.3,3.5-.1.2-.2.5-.3.7h0l-.3.9-1.8,5.1a4.18,4.18,0,0,1-.4,1c-.7,2-1.3,3.9-2,5.9a9.83,9.83,0,0,0-.5,1.6c-.6,1.8-1.2,3.6-1.7,5.3l-.3.9c-.6,2-1.3,4-1.9,6.1-.2.5-.3,1.1-.5,1.6-.6,1.9-1.1,3.8-1.7,5.7-.1.2-.1.4-.2.5-.6,2.1-1.2,4.2-1.7,6.3-.1.5-.3,1.1-.4,1.6-.6,2.1-1.1,4.2-1.7,6.3v.1c-.5,2.1-1.1,4.3-1.6,6.4-.1.5-.3,1.1-.4,1.6-.5,2.2-1,4.3-1.5,6.5,0,.1-.1.2-.1.4-.5,2.1-.9,4.2-1.4,6.3-.1.5-.2,1-.3,1.6-.5,2.2-.9,4.4-1.4,6.7,0,.2-.1.4-.1.6l-1.2,6.3-.3,1.5c-.4,2.3-.9,4.5-1.3,6.8,0,.2-.1.5-.1.7-.4,2.1-.7,4.2-1.1,6.3a6.75,6.75,0,0,0-.2,1.4c-.4,2.3-.8,4.6-1.1,7,0,.3-.1.6-.1.8-.3,2.1-.7,4.3-1,6.4-.1.4-.1.9-.2,1.3-.3,2.4-.7,4.8-1,7.1,0,.3-.1.6-.1.9l-.9,6.6c0,.4-.1.8-.1,1.1-.3,2.4-.6,4.9-.9,7.3,0,.3-.1.7-.1,1-.3,2.2-.5,4.5-.7,6.8,0,.3-.1.7-.1,1-.3,2.5-.5,5-.7,7.4,0,.4-.1.7-.1,1.1l-.6,6.9a2.2,2.2,0,0,1-.1.8c-.2,2.5-.4,5-.6,7.6,0,.4-.1.8-.1,1.2-.2,2.4-.4,4.7-.5,7.1v.7c-.2,2.6-.3,5.1-.5,7.7a6.15,6.15,0,0,1-.1,1.3c-.1,2.4-.3,4.9-.4,7.3v.5c-.1,2.6-.2,5.2-.4,7.8a6.6,6.6,0,0,1-.1,1.4l-.3,7.5v.3c-.1,2.6-.2,5.2-.2,7.8v1.6c-.1,2.5-.1,5.1-.2,7.7v.2c0,2.6-.1,5.2-.1,7.8v9.6c-.3,174.5,37.8,309.5,137.3,363.7l180.7,98.3a7.46,7.46,0,0,1,1.2.7h0c-72.3-39.3-112.2-121.3-128.5-230.2-6.1-41-8.9-85.8-8.9-133.5v-9.4c.1-5.3.1-10.6.3-15.9v-1.3c.1-5.4.3-10.7.5-16v-1c.2-5.4.5-10.7.8-16.1v-.7c.3-5.4.7-10.8,1.1-16.1v-.5c.2-2.7.4-5.4.7-8.1h0c.2-2.7.5-5.3.7-8v-.3c.3-2.7.5-5.3.8-8v-.1c.3-2.6.6-5.3.9-7.9v-.1c.3-2.6.6-5.3.9-7.9V552c.7-5.2,1.4-10.4,2.1-15.5a.6.6,0,0,1,.1-.4c.7-5.1,1.5-10.1,2.4-15.1,0-.2.1-.4.1-.6.8-4.9,1.7-9.8,2.6-14.7a2.35,2.35,0,0,1,.2-.8c.9-4.8,1.9-9.5,2.9-14.2.1-.3.1-.6.2-.9,1-4.6,2.1-9.2,3.2-13.8.1-.4.2-.7.3-1.1,1.1-4.5,2.2-8.9,3.4-13.3l.3-1.2c1.2-4.4,2.4-8.7,3.7-12.9.1-.4.3-.9.4-1.3.6-2.1,1.3-4.2,1.9-6.3,0-.1.1-.3.1-.4.6-2,1.3-3.9,1.9-5.9.1-.4.3-.9.4-1.3.7-2,1.4-4.1,2.1-6.1a1.45,1.45,0,0,0,.2-.7c.6-1.9,1.3-3.7,2-5.5.1-.3.2-.6.3-1,.7-1.8,1.4-3.7,2-5.5.5-1.3,1-2.5,1.5-3.8.2-.5.4-1.1.6-1.6.8-1.9,1.5-3.9,2.3-5.8.3-.8.7-1.6,1-2.5s.7-1.7,1.1-2.6c4.7-10.9,9.8-21.6,15.3-32a5.58,5.58,0,0,1,.5-.8c.4-.8.8-1.5,1.3-2.3s.9-1.6,1.3-2.4c.2-.4.4-.7.6-1.1,1.7-3.1,3.5-6.1,5.3-9.1.4-.7.8-1.3,1.2-2s.7-1.1,1-1.7c.6-.9,1.1-1.8,1.7-2.7.3-.4.5-.8.8-1.2.7-1.1,1.3-2.1,2-3.1l.6-.9c.7-1.1,1.5-2.2,2.2-3.3l.6-.9,1.8-2.7a12.13,12.13,0,0,1,1-1.4h0a288.12,288.12,0,0,1,21.7-27.5h0c1.8-2.1,3.7-4.1,5.6-6.1.1-.1.1-.2.2-.2,1.9-2,3.8-4,5.7-5.9h0c2-2,4-3.9,6-5.9h0c1.9-1.8,3.8-3.6,5.8-5.4,2.3-2,4.5-4,6.9-6,.1,0,.1-.1.2-.1.8-.6,1.5-1.3,2.3-1.9.4-.3.7-.6,1.1-.9.7-.6,1.4-1.1,2.1-1.7l1.4-1.1c.7-.5,1.3-1.1,2-1.6a14.31,14.31,0,0,1,1.5-1.1c.7-.5,1.4-1.1,2.1-1.6a17.1,17.1,0,0,0,1.4-1.1l2.2-1.6a11.32,11.32,0,0,0,1.3-1c.8-.6,1.6-1.1,2.4-1.7.4-.3.8-.5,1.2-.8a12.13,12.13,0,0,0,1.4-1c4.8-3.3,9.8-6.5,14.8-9.6.1-.1.2-.1.3-.2,3.3-2,6.6-3.9,10-5.7.4-.2.8-.5,1.3-.7,1.2-.6,2.4-1.3,3.6-1.9.5-.3,1-.5,1.6-.8,1.6-.8,3.1-1.6,4.7-2.4a5.36,5.36,0,0,1,1.1-.5c1.3-.7,2.7-1.3,4-1.9.5-.2.9-.4,1.4-.6a351,351,0,0,1,46.5-17.3,393.55,393.55,0,0,1,52.8-11.2h0a348.2,348.2,0,0,1,61.5-3.5,292.26,292.26,0,0,1,53.4,7.5A15.06,15.06,0,0,1,1318.3,207.2Z" style="fill: #676fb8"/>
      </g>
      <g id="Group_32" data-name="Group 32">
        <polygon points="627.9 695 540.5 707.3 722.5 806.3 809.8 794 627.9 695" style="fill: #676fb8"/>
        <polygon points="358 903.1 357.7 1052.6 539.6 1151.6 539.9 1002.1 358 903.1" style="fill: #676fb8"/>
        <polygon points="371.7 439 371.1 731.1 553.1 830.1 553.6 538 371.7 439" style="fill: #676fb8"/>
        <polygon points="371.1 731.1 192.1 756.3 374 855.3 553 830.1 371.1 731.1" style="fill: #676fb8"/>
        <polygon points="541.5 199 338 227.6 519.9 326.6 723.4 298 541.5 199" style="fill: #676fb8"/>
        <polygon points="337.9 227.6 0.3 794.7 182.3 893.7 519.9 326.6 337.9 227.6" style="fill: #676fb8"/>
        <polygon points="0.3 794.7 0 953.4 181.9 1052.4 182.2 893.7 0.3 794.7" style="fill: #676fb8"/>
        <path d="M722.5,806.3l.9-508.3L519.9,326.6,182.3,893.7l-.3,158.7,358-50.3-.3,149.5L721.9,1126l.3-149.5,87.4-12.3.3-170.2ZM553,830.1h0L374,855.2,553.6,537.9Z" style="fill: #d9e3f5"/>
      </g>
    </g>
  </g>
</svg>
